# xmcd CD database file
#
# Track frame offsets:
#	150
#	16949
#	40904
#	58208
#	70998
#	91669
#	111346
#	133646
#	156391
#	182581
#	197814
#	219602
#
# Disc length: 3076 seconds
#
# Revision: 0
# Processed by: cddbd v1.5.2PL0 Copyright (c) Steve Scherf et al.
# Submitted via: CDex 1.51
#
DISCID=ac0c020c
DTITLE=Brian Curran - Live At Off Broadway
DYEAR=2012
DGENRE=Blues
TTITLE0=Key To The Highway
TTITLE1=Pony Blues
TTITLE2=Louis Collins
TTITLE3=Presbyterian Guitar
TTITLE4=Death Letter Blues
TTITLE5=I`m Satisfied
TTITLE6=Some Days And Memories
TTITLE7=Jitterbug Swing
TTITLE8=Blue Bird
TTITLE9=In Spite Of Ourselves
TTITLE10=Big Road Blues
TTITLE11=Cherokee
EXTD=YEAR: 2012
EXTT0=
EXTT1=
EXTT2=
EXTT3=
EXTT4=
EXTT5=
EXTT6=
EXTT7=
EXTT8=
EXTT9=
EXTT10=
EXTT11=
PLAYORDER=
